<svg class="size-full" viewBox="0 0 554 291" fill="none" xmlns="http://www.w3.org/2000/svg">
<path d="M0 4.33213C80.3745 6.73094 164.143 5.72949 244.531 3.51031C268.334 2.83531 302.515 1.44083 326.031 0L326.432 129.34C273.778 127.549 216.164 127.937 163.407 128.35C125.454 129.02 79.096 130.053 41.1498 131.59C27.5667 132.292 13.9835 132.78 0.401301 133.672L0 4.33213Z" fill="#221F56"/>
<path d="M58.1391 100.114C36.5287 100.114 27.2831 92.4278 27.2831 81.0656C27.2831 80.2859 27.2831 79.5061 27.3944 78.7263H43.5465C43.3237 79.8403 43.3237 80.9542 43.3237 81.9568C43.3237 89.9771 48.5593 94.6556 58.1391 94.6556C66.9392 94.6556 71.8405 91.5366 71.8405 85.6328C71.8405 69.2579 28.397 74.6048 28.397 50.0982C28.397 39.293 38.7566 32.2752 55.5771 32.2752C74.6254 32.2752 83.9825 39.293 83.9825 47.9817C83.9825 48.7614 83.9825 49.6526 83.7597 50.5437H67.719C67.8304 49.9868 67.8304 49.4298 67.8304 48.8728C67.8304 42.1892 62.7063 37.9562 54.9087 37.9562C46.8883 37.9562 42.4326 41.1866 42.4326 45.8652C42.4326 63.2426 85.9875 58.1185 85.9875 81.734C85.9875 92.6506 74.9596 100.114 58.1391 100.114ZM114.217 100.225C104.86 100.225 97.6195 96.4379 97.6195 86.4125V54.1083H91.6042V47.2019H97.6195V37.2879L111.878 34.7258V47.2019H127.473V54.1083H111.878V86.4125C111.878 91.5366 114.217 93.3189 117.002 93.3189C120.232 93.3189 122.238 91.648 123.686 88.0834L129.924 91.2024C126.805 97.4405 122.349 100.225 114.217 100.225ZM160.101 100.225C144.172 100.225 132.921 91.4252 132.921 73.1567C132.921 54.7767 144.172 45.9766 160.101 45.9766C175.696 45.9766 186.835 54.7767 186.835 73.1567C186.835 91.4252 175.696 100.225 160.101 100.225ZM160.101 93.8759C167.23 93.8759 172.02 88.7518 172.02 73.1567C172.02 57.4501 167.23 52.4374 160.101 52.4374C152.749 52.4374 147.848 57.4501 147.848 73.1567C147.848 88.7518 152.749 93.8759 160.101 93.8759ZM210.711 99H196.675V30.1587H210.711V68.9237H213.273C219.4 68.9237 222.296 66.3616 225.304 60.5692L231.987 47.2019H246.914L237.78 60.6806C234.104 65.8047 231.096 68.1439 225.749 70.3718C234.215 72.4883 238.782 77.6124 241.233 83.8505L246.914 99H230.651L224.969 82.5137C223.187 77.6124 220.291 75.7187 213.273 75.7187H210.711V99ZM274.731 100.225C259.916 100.225 248.888 91.648 248.888 73.0453C248.888 54.6653 260.696 45.9766 274.731 45.9766C288.878 45.9766 299.683 54.6653 299.683 68.7009C299.683 70.2604 299.683 71.9313 299.349 73.825H263.815C263.815 74.8276 263.703 75.7187 263.703 76.6099C263.703 89.1974 268.048 93.4303 274.731 93.4303C280.635 93.4303 284.088 90.8683 284.088 83.7391V82.4023H298.792V83.4049C298.792 93.2075 289.101 100.225 274.731 100.225ZM264.037 67.1414H284.645V66.0275C284.645 56.8932 280.635 52.7716 274.397 52.7716C268.159 52.7716 264.037 57.0046 264.037 66.3616V67.1414Z" fill="white"/>
<path d="M130 161.343C234.399 163.747 343.205 162.744 447.62 160.519C478.537 159.842 522.935 158.444 553.48 157L554 286.657C485.608 284.861 410.773 285.251 342.248 285.665C292.952 286.336 232.737 287.372 183.448 288.913C165.806 289.617 148.163 290.105 130.52 291L130 161.343Z" fill="#5DB0BE"/>
<path d="M166.528 256H159.065V190.389H174.549L197.83 235.949L222.448 190.389H235.815V256H221.557V210.663L197.162 256H191.926L166.528 206.096V256ZM255.448 198.744C251.103 198.744 247.427 195.179 247.427 190.835C247.427 186.379 251.103 182.814 255.448 182.814C259.792 182.814 263.357 186.379 263.357 190.835C263.357 195.179 259.792 198.744 255.448 198.744ZM262.465 256H248.43V204.202H262.465V256ZM288.845 256H274.809V204.202H284.723C286.951 205.427 288.622 208.212 288.845 212.222C292.632 205.65 298.87 202.977 306.222 202.977C317.696 202.977 325.493 210.329 325.493 223.25V256H311.346V225.144C311.346 216.455 307.113 212.556 300.207 212.556C293.189 212.556 288.845 216.455 288.845 225.144V256ZM357.583 257.225C342.879 257.225 333.857 251.99 333.857 242.076V240.293H348.338C348.226 241.073 348.226 241.63 348.226 242.187C348.226 248.982 352.459 250.876 357.918 250.876C363.822 250.876 367.609 248.425 367.609 243.858C367.609 231.939 334.748 236.506 334.748 218.349C334.748 209.66 342.768 202.977 357.249 202.977C371.173 202.977 380.196 209.326 380.196 217.346V218.238H365.604V217.346C365.604 212.222 362.039 209.437 357.249 209.437C352.125 209.437 349.006 211.443 349.006 215.453C349.006 226.481 381.756 222.693 381.756 240.739C381.756 250.653 372.287 257.225 357.583 257.225ZM409.382 257.225C400.024 257.225 392.784 253.438 392.784 243.413V211.108H386.769V204.202H392.784V194.288L407.042 191.726V204.202H422.637V211.108H407.042V243.413C407.042 248.537 409.382 250.319 412.166 250.319C415.397 250.319 417.402 248.648 418.85 245.083L425.088 248.202C421.969 254.44 417.513 257.225 409.382 257.225ZM453.929 257.225C439.113 257.225 428.085 248.648 428.085 230.045C428.085 211.665 439.893 202.977 453.929 202.977C468.076 202.977 478.881 211.665 478.881 225.701C478.881 227.26 478.881 228.931 478.547 230.825H443.012C443.012 231.828 442.901 232.719 442.901 233.61C442.901 246.197 447.245 250.43 453.929 250.43C459.832 250.43 463.286 247.868 463.286 240.739V239.402H477.99V240.405C477.99 250.208 468.298 257.225 453.929 257.225ZM443.235 224.141H463.843V223.027C463.843 213.893 459.832 209.772 453.594 209.772C447.356 209.772 443.235 214.005 443.235 223.362V224.141ZM501.851 256H487.815V204.202H496.615C499.066 205.427 500.848 207.655 500.848 212.891C503.076 206.318 508.646 202.977 515.106 202.977C525.577 202.977 530.145 211.108 530.145 219.686C530.145 222.359 529.588 225.033 528.696 227.595H515.106C515.886 225.478 516.22 223.25 516.22 221.357C516.22 216.01 513.881 212.222 509.425 212.222C504.858 212.222 501.851 216.232 501.851 226.369V256Z" fill="white"/>
</svg>
